<svg xmlns="http://www.w3.org/2000/svg" width="313.398" height="81" viewBox="0 0 313.398 81"><defs><style>.a{fill:#141215;}.b,.d{fill:#fff;}.c{fill:none;}.d{font-size:4px;font-family:MyriadPro-Bold, Myriad Pro;font-weight:700;}.e{letter-spacing:-0.003em;}</style></defs><g transform="translate(0 0)"><g transform="translate(0 0)"><path class="a" d="M27.019,2.081l-1.213-.518c-.167.283-.32.553-.371.62a5.085,5.085,0,0,1-2.287,1.636,2.737,2.737,0,0,1,1.63-1.441.214.214,0,0,0-.223-.208,7.684,7.684,0,0,0-1.663.694,4.983,4.983,0,0,0-1.252,1.128A4.287,4.287,0,0,1,22.421.31c.5-.776-.521.123-.739.336a4.188,4.188,0,0,0-1.519,3.462A2.126,2.126,0,0,1,19.937,1.8c-.38-.138-1.468,1.094-1.685,1.409-.186.27-.233.637-.5.8a5.965,5.965,0,0,1,.968-2.726A4.694,4.694,0,0,0,16.6,4.417c-.1.156-.539-.333-.7-.427a5.9,5.9,0,0,0-2.329-.642l1.072.843c.077.078.9.9.662.96-1.545-.064-3.359-.3-4.14-1.789-.09-.172-.135-.717-.34-.591A9.546,9.546,0,0,0,9.66,4.507c-.155.308-.22.665-.4.963l-.02-.75A6.055,6.055,0,0,0,7.99,9.7c-.247.112-.166-.012-.251-.151a4.485,4.485,0,0,1-.454-2.973c-.21-.107-.88,1.149-.971,1.356A3.676,3.676,0,0,0,6.1,10.594a2.52,2.52,0,0,1-1.11-1.83c-.02-.109.082-.869-.143-.671a4.117,4.117,0,0,0-.332,1.226,5.33,5.33,0,0,0,.346,1.707A7.876,7.876,0,0,0,2.49,12.245c-.19.346.893-.1.982-.055l1.155.038A8.264,8.264,0,0,0,0,15.433l1.163.223.727.258-1.445.394c.027.264.105.125.256.143.213.025,1.358.068,1.4.21A8.286,8.286,0,0,0,.388,20.015c-.016.087-.123.622.129.441.287-.206.9-1.042,1.275-1.375a4.035,4.035,0,0,1,.44-.352c.075-.049.234-.215.259-.043A8.451,8.451,0,0,0,.6,22.721,10.327,10.327,0,0,0,.4,23.949c-.009.5.585-.629.631-.692.23-.316.5-.622.755-.919.06-.069.108-.286.247-.161-.173,1.548-.785,3.267-.8,4.818-.014,1.357,1.172,3.038,1.582,4.36.259.838.322,1.992.546,2.875.535,2.117,1.744,4.225,2.21,6.319.56,2.513.137,4.764,1.048,7.391.966,2.785,2.524,6.178,3.75,8.914a15.156,15.156,0,0,0,3.6,5.232c2.18,1.938,6.452,4.171,7.909,6.588a27.626,27.626,0,0,1,1.548,3.11c.021.179-.088.291-.169.432-1.709,2.946-4.3,5.794-6.107,8.726-.012.02-.02.037-.033.057H28.922a14.969,14.969,0,0,1-.91-1.81c-.89-2.071-1.615-4.083-2.5-6.033q-.557-1.139-1.137-2.257l-2.905-3.763.35.248c-.118-.111-.241-.219-.366-.322l-.1-.084-1.556-2.016c-.037-.038-.077-.074-.113-.113.066.008.133.012.2.018a.77.77,0,0,1,.521-.257,7.757,7.757,0,0,1,1.4.059,8.416,8.416,0,0,1,1.353-.067c.181-.037.362-.071.543-.11a6.457,6.457,0,0,1,1.664-.2,2.189,2.189,0,0,1,.6-.193,15.278,15.278,0,0,0,6.275-3.184c.179-.2.36-.4.541-.589a7.043,7.043,0,0,0,1.156-1.436,2.15,2.15,0,0,0,.209-.55,9.85,9.85,0,0,1-2,1.739c.113.212-.059.212-.179.306C29.173,62.6,23.4,64.6,19.567,63.614a9.7,9.7,0,0,1-1.295-.207,3.637,3.637,0,0,1-1.99-1.063c-.414-.241-1.015-.622-1.137-.714A12.579,12.579,0,0,1,11.622,56.8c-1.636-3.54-3.127-7.35-4.449-11.006-.082-.932-.507-2.937.226-3.652.2-.191.825-.418.877-.649.087-.374-.547-1.733-.031-1.891.186-.058.761.1.795-.191.018-.145-.4-.161-.568-.33-.43-.44-.064-.791.173-1.218l.732.969c.772.657,1.49.256,2.3-.089-.049-.244.195-.349.293-.617.043-.116.175-.758.075-.809-.237.023-.717.274-.919.207a.3.3,0,0,1-.073-.492,10.6,10.6,0,0,1,1.035-.253,6.843,6.843,0,0,1,1.641.454c.139.138.06.168-.033.283a4.01,4.01,0,0,1-.921.644l1.211-.189A8.757,8.757,0,0,1,9.22,42.064c.03.263.1.131.263.131a6.51,6.51,0,0,0,3.494-1.517l1.231-1.252a12.129,12.129,0,0,1-.3,2.721c-.292.749-.919,1.093-.977,2.131-.04.708.312,1.2.325,1.807a26.433,26.433,0,0,1-.547,2.737A9.88,9.88,0,0,0,13.1,54.18c.135-.011.071-.2.061-.3a10.4,10.4,0,0,1,.022-3.173,21.847,21.847,0,0,1,.963-2.879c.133-.1.139.024.185.069a3.3,3.3,0,0,0,.647.593c1.179.665,2.423-.049,3.373-.767.332-.252.907-.792,1.243-1.1.372-.339.672-.732,1.062-1.047a1.011,1.011,0,0,1,.04-.2c.012-.041.052-.077.065-.112.031-.087.181-.23.182-.382s-.908.55-.995.6a3.484,3.484,0,0,1-2.859.536c-.484-.165-1.737-1.014-2.109-.967-.6.075.113.8.043.919-1.057.063-1.528-1.108-1.315-2.015.139-.589.711-1.129.881-1.665a45.257,45.257,0,0,0,1.105-6.948,2.142,2.142,0,0,0-.211-1.159A7.542,7.542,0,0,0,14,32.611c-.14-.132-.458-.4-.679-.6a3.7,3.7,0,0,0-3.4-1.036,9.838,9.838,0,0,0-4.609,1.809,6.568,6.568,0,0,0-.726.971,19.451,19.451,0,0,1,.353-11.838,10.912,10.912,0,0,1,1.5-2.732c.112-.139.626-.807.753-.735A6.333,6.333,0,0,0,9.3,21c.172.13.308.266.5.387A5.441,5.441,0,0,0,11.04,22c-.438-.6-.98-1.136-1.38-1.758A9.017,9.017,0,0,1,9.1,19.3l-.569-1.977a5.768,5.768,0,0,1,2.655-.735,7.054,7.054,0,0,1,.4.851,7.862,7.862,0,0,0,2.532,3.187c.183.134.5.41.733.377a9.428,9.428,0,0,1-1.987-3.864,6.22,6.22,0,0,1-.049-.878,4.693,4.693,0,0,1,1.176-.284c.072.019.846.8,1.108.98a9.469,9.469,0,0,0,1.754.847c-.371-.415-1.785-2.1-1.43-2.6A14.729,14.729,0,0,1,17.5,13.98a26.094,26.094,0,0,1,5.411-1.958c.335-.082.786-.21,1.029.038,1,1.022,1.256,3.832,1.053,5.207-.015.1-.267.54.047.4.165-.076.368-.595.445-.793a8.861,8.861,0,0,0,.339-5.109c.458-.111.757-.1,1,.315.876,1.529.5,3.887-.01,5.481.09.049.591-.686.653-.79a8.6,8.6,0,0,0,1.189-4.311c0-.067-.085-.189.1-.165a9.239,9.239,0,0,1,1.64.982c1.419,1.215,1.418,2.421.721,4.01-.083.191-.57.847-.019.584.682-.325,1.209-1.139,1.737-1.652.1.638.32,1.465.377,2.007.1,1,.026,2.02.115,3.022a22.438,22.438,0,0,0,2.754,1.431A9.184,9.184,0,0,1,40.327,27.3a58.45,58.45,0,0,1,1.742,7.056l2.273.146c0-1.534-.07-3.056.946-4.333a1.161,1.161,0,0,1,.189.771c.01.124.029.162.152.082,1.214-1.547,3.534-3.646,5.323-1.57,2.514,2.916,1.22,7.635-.035,10.832-.612,1.561-1.61,3.514-3.631,2.225l-.944-1.063a7.725,7.725,0,0,0,.4,3.191A3.562,3.562,0,0,0,47.977,45.7c1.394.206,2.582,1.584,1.551,3.016-.12.166-.243.33-.364.5.082.429.167.858.265,1.283.149.641.5,1.411.592,2.027.019.128.049.233-.048.344L32.828,72.1c-.058.192-.112.387-.165.581.038.289.076.577.105.865a5.194,5.194,0,0,0,.176.511,3.4,3.4,0,0,1,.3.326,2.106,2.106,0,0,1,.375.351c1.709,2.07,2.346,3.912,1.84,6.27h.133c.293-.9.559-1.788.767-2.634a1.716,1.716,0,0,0-.24-1.8c-.679-1.088-1.737-2.148-2.494-3.2-.2-.383,1.1-1.484,1.342-1.528a8.765,8.765,0,0,1,1.825.735l11.332,4.406,3.839-6.889.052.55,3.795-6.811L48.943,79.59c-2.78-.432-5.544-.974-8.312-1.481-1.424.027-1.874,1.8-2.552,2.891L312.347,79.59,313.4.95ZM13.334,36.393a16.579,16.579,0,0,0-2.149-.3,4.508,4.508,0,0,0-3.6,1.626,3.46,3.46,0,0,1,2.79-2.328c.882-.171,2.717-.047,2.961,1m-3.1-2.476c.611.053,1.42.184,1.726.763-2.251.06-4.995,1.043-5.351,3.476-.027.184.17.73-.188.627-.332-.095-.142-.248-.2-.4-.009-.023-.066.06-.219-.327-1.267-3.223,1.263-4.4,4.235-4.144m1.144-24.1A10.5,10.5,0,0,0,8.906,12.5c-.077.3.647.4.865.509.144.069,1.208.611,1.134.735-.561.036-1.965-.658-2.356-.217-.447.5-.558,2.855-.529,3.561a10.555,10.555,0,0,1,.123,1.105c-.193.116-.183-.154-.223-.27A7.586,7.586,0,0,1,7.789,13.4c-.123-.407-3.123.4-3.5.525-.211.066-.388.194-.6.265-.1.033-.326.15-.344,0a9.452,9.452,0,0,1,3.234-1.45c.28-.053,1.2-.041,1.324-.1.175-.084.254-.518.361-.683a7.615,7.615,0,0,1,3.153-2.717l1.671-.455Zm4.371,3.17c-.152.064-.142-.176-.177-.281a5.24,5.24,0,0,1-.169-2.277c-.182.008-.187.152-.265.261a4.453,4.453,0,0,0-.707,2.205l.161,2.492c-2.159-3.452.175-6.721,3.636-8l-1.26,1.345a5.958,5.958,0,0,0-1.219,4.257m8.358-2.152a3.964,3.964,0,0,0-5.582-.735c-.281.194-.531.576-.723.715-.148.107-.207-.081-.192-.18.06-.392,1.349-1.435,1.743-1.637,2.733-1.4,5.11.379,5.677,3.07ZM27.739,12c-.15.064-.143-.177-.177-.282a8.487,8.487,0,0,0-1.982-3.68,10.975,10.975,0,0,1-.912-.79c2.239.4,3.295,2.691,3.071,4.752m7.344,3.685a16.478,16.478,0,0,0-.571-2.829,10.9,10.9,0,0,0-2.248-3.482c-.1-.09-.22-.213-.371-.212.1.357.275.676.393,1.03a1.063,1.063,0,0,1,.257.479,1.063,1.063,0,0,0-.257-.479c.134.4.224.825.354,1.231a.653.653,0,0,1,.014-.117.653.653,0,0,0-.014.117,6.693,6.693,0,0,1,.079,1.709c-.008.1-.111,1.257-.339,1.109a9.487,9.487,0,0,0-3.452-7.258c.026-.118.26-.1.358-.092a10.285,10.285,0,0,1,3.268,1.718,10.3,10.3,0,0,1,2.314,3.105l.518,1.8a5.955,5.955,0,0,0,.6-3.192L35.8,8.985l.147.2a6.334,6.334,0,0,1-.864,6.5" transform="translate(0 0)"/><path class="a" d="M35.083,31.418a8.138,8.138,0,0,0-3.572-1.41,2.247,2.247,0,0,0-1.267.209,1.241,1.241,0,0,0-.328.184c-.085.031-.177.044-.264.074a8.113,8.113,0,0,1-2.459.87c-.149.04-.375.165-.508.046-.233.069-.471.126-.7.195a12.961,12.961,0,0,1-1.71.662c-.028.011-.06.012-.089.024l-.327.185c-.052.025-.129.022-.176.049h0a.408.408,0,0,0-.151.135l.113-.1-.113.1c-.718.484-1.266.891-.99,1.869l-.684-.748a1.694,1.694,0,0,0,.28,1.329,1.575,1.575,0,0,0,1.309.476c.44-.133,1.249-.793,1.816-1.047,1.216-.544,2.531-.992,3.777-1.528.491-.212.957-.518,1.462-.69a8.78,8.78,0,0,1,6.007.592c.1-.262-1.173-1.3-1.421-1.475" transform="translate(-3.748 -4.881)"/><path class="a" d="M31.931,58.8a7.781,7.781,0,0,1,.8.229c.433-.216.338-.389.127-.811-.431-.863-.607-.658-1.176-.212-.1.081-.2.205-.3.272a2.37,2.37,0,0,1-1.117.073,22.041,22.041,0,0,0-4.825-.093c-.943.205-1.717.882-2.988.991-.464.04-.97-.365-1.555-.132a4.455,4.455,0,0,0-1.6,1.566c-.209.322-.725,1.652-1.024,1.672-.087.006-.208-.1-.331-.078-.576.089-.342,1.731.144,1.548.164-.062.277-.388.42-.5.186-.151.449-.208.657-.368a7.113,7.113,0,0,1,2.79-1.784c.617-.172,1.24-.21,1.833-.411.716-.241,1.466-.735,2.186-.982,1.418-.488,2.943-.29,4.4-.563a14.5,14.5,0,0,1,1.57-.413" transform="translate(-3.022 -9.375)"/><path class="a" d="M35.665,38c.158-.153-.415-.377-.507-.417a9.48,9.48,0,0,0-4.963-.463,4.883,4.883,0,0,0-1.573.921A14.948,14.948,0,0,0,27.09,40.23a.49.49,0,0,0,.011.372c.209-.152,1.02-.326,1.114-.443.071-.089-.014-.33.041-.49a5.375,5.375,0,0,1,.738-1.092c.058.682.924,1.686,1.647,1.6,1.036-.12,1.908-.636,1.822-1.763-.5-.113-1.3.389-1.356-.424a6.764,6.764,0,0,1,1.241-.162c.833.015,2.631.833,3.317.167" transform="translate(-4.647 -6.025)"/><path class="a" d="M58.536,36.375a1.585,1.585,0,0,0-2.235.366c-1.3,1.281-1.353,3.242-1.927,4.87-.036.294.379.429.593.647a1.518,1.518,0,0,1,.568,1.46c-.152.659-.793,1.042-.491,1.787.172.424.575.433.953.229.321-.173.371-.647.578-.777.566-.356,1.034.156,1.489-.712a2.626,2.626,0,0,0-1.025-3.284c-.252-.166-1.364-.578-1.393-.691a.407.407,0,0,1,.017-.293l1.121-2.167c.625-.446,1,.109,1.349.574a6.935,6.935,0,0,1,1.252,3.992,1.386,1.386,0,0,0,.233-.639c.325-1.493.272-4.391-1.083-5.363" transform="translate(-8.123 -5.849)"/><path class="a" d="M37.3,36.842c-1.456-.031-2.657-.958-4.08-1.235a8.551,8.551,0,0,0-5.093.678,4.111,4.111,0,0,0-1.647,2.895c.21.108,1.441-1.842,1.717-2.086a4.629,4.629,0,0,1,1.461-.764,7.583,7.583,0,0,1,4.353-.026,13.078,13.078,0,0,0,2.043.841c.334.049,1.156.094,1.247-.3" transform="translate(-4.548 -5.784)"/><path class="a" d="M23.182,63.972a.522.522,0,0,1-.187.15c-.273.1-.571.135-.843.229.489.8,2.093.508,2.884.335.071-.016.15.045.163.041a9.228,9.228,0,0,0,1.35-.605,2.643,2.643,0,0,0,1.473-1.489c-1.283.447-2.583.816-3.9,1.175-.31.085-.61.067-.945.164" transform="translate(-3.804 -10.219)"/><path class="a" d="M27.33,51.653c-.1-.494-.212-.7-.727-.74a4.48,4.48,0,0,0-3.105,1.5c-.22.228-.572.571-.532.914.1.048,1.471-.848,1.769-.957.659-.242,1.389-.151,2.028-.375a5.411,5.411,0,0,0,.567-.345" transform="translate(-3.944 -8.305)"/><path class="a" d="M24.275,32.928l.327-.185a3.042,3.042,0,0,0-.327.185" transform="translate(-4.169 -5.35)"/><path class="a" d="M60.425,43.895q.073-.067-.025-.087Z" transform="translate(-9.057 -7.158)"/><path class="a" d="M29.27,21.274l.025.087q.073-.067-.025-.087" transform="translate(-5.027 -3.476)"/><path class="a" d="M10.969,47.141c.029-.14-.122-.217-.135-.149-.029.14.121.216.135.149" transform="translate(-1.86 -7.673)"/><path class="b" d="M75.5,21.858V32.681H73.025V21.858H68.373V19.3H80.154v2.562Zm-2.735,1.053h-3.4l-1-.794h4.393Zm7.088-1.35V19.594H68.672V21.56h4.653V32.383H75.2V21.56Zm-.32-1.628.06.1-.06.1H69.691l-.659.08-.1-.178.1-.1Zm-9.844.536h9.844l.06.1-.06.1H69.691l-.659.08-.1-.179.1-.179Zm0,.536h9.844l.06.1-.06.1h-10.5l-.1-.1.1-.179Zm7.069,1.907V33.734H74.023l-1-.794h2.736V22.116h4.652V19.3l1,.794v2.82Zm-2.417-1.35h.539l.06.1-.06.1h-.539l-.658.08-.1-.179.1-.178Zm0,.536h.539l.06.1-.06.1h-.539l-.658.079-.1-.178.1-.179Zm0,.536h.539l.06.1-.06.1h-.539l-.658.08-.1-.179.1-.179Zm0,.557h.539l.06.1-.06.1h-.539l-.658.079-.1-.179.1-.178Zm0,.536h.539l.06.1-.06.1h-.539l-.658.1-.1-.2.1-.179Zm0,.536h.539l.06.1-.06.1h-.539l-.658.08-.1-.179.1-.179Zm0,.557h.539l.06.1-.06.1h-.539l-.658.079-.1-.179.1-.158Zm0,.536h.539l.06.1-.06.1h-.539l-.658.079-.1-.179.1-.178Zm0,.536h.539l.06.1-.06.1h-.539l-.658.08-.1-.179.1-.178Zm0,.557h.539l.06.1-.06.1h-.539l-.658.079-.1-.179.1-.179Zm0,.536h.539l.06.1-.06.1h-.539l-.658.08-.1-.179.1-.179Zm0,.536h.539l.06.1-.06.1h-.539l-.658.08-.1-.179.1-.178Zm0,.556h.539l.06.1-.06.1h-.539l-.658.08-.1-.18.1-.179Zm0,.537h.539l.06.1-.06.1h-.539l-.658.08-.1-.179.1-.179Zm0,.536h.539l.06.1-.06.1h-.539l-.658.08-.1-.179.1-.178Zm0,.556h.539l.06.1-.06.1h-.539l-.658.08-.1-.178.1-.179Zm0,.537h.539l.06.1-.06.1h-.539l-.658.1-.1-.2.1-.179Zm0,.536h.539l.06.1-.06.1h-.539l-.658.08-.1-.179.1-.179Zm0,.537h.539l.06.1-.06.1h-.539l-.658.08-.1-.179.1-.178Zm0,.536h.539l.06.1-.06.1h-1.2l-.1-.1.1-.179Z" transform="translate(-10.157 -3.118)"/><path class="b" d="M94.668,32.681v-5.4h-6.85v5.4H85.343V19.3h2.476v5.422h6.85V19.3h2.476V32.681Zm-.26-4.349H89.078v5.4H86.342l-1-.794h2.736v-5.4h6.33Zm2.437,4.051V19.594H94.967v5.422H87.52V19.594H85.643V32.383H87.52v-5.4h7.448v5.4ZM87.18,19.932l.06.1-.06.1h-.538l-.659.08-.1-.178.1-.1Zm-.538.536h.538l.06.1-.06.1h-.538l-.659.08-.1-.179.1-.179Zm0,.536h.538l.06.1-.06.1h-.538l-.659.08-.1-.179.1-.179Zm0,.557h.538l.06.1-.06.1h-.538l-.659.08-.1-.179.1-.178Zm0,.536h.538l.06.1-.06.1h-.538l-.659.079-.1-.178.1-.179Zm0,.536h.538l.06.1-.06.1h-.538l-.659.08-.1-.179.1-.179Zm0,.557h.538l.06.1-.06.1h-.538l-.659.079-.1-.179.1-.178Zm0,.536h.538l.06.1-.06.1h-.538l-.659.1-.1-.2.1-.179Zm0,.536h.538l.06.1-.06.1h-.538l-.659.08-.1-.179.1-.179Zm0,.557h.538l.06.1-.06.1h-.538l-.659.079-.1-.179.1-.158Zm0,.536h9.864l.06.1-.06.1H86.642l-.659.079-.1-.179.1-.178Zm0,.536h9.864l.06.1-.06.1H86.642l-.659.08-.1-.178.1-.179Zm0,.557h9.864l.06.1-.06.1H86.642l-.659.079-.1-.179.1-.179Zm0,.536h.538l.06.1-.06.1h-.538l-.659.08-.1-.179.1-.179Zm0,.536h.538l.06.1-.06.1h-.538l-.659.08-.1-.179.1-.178Zm0,.556h.538l.06.1-.06.1h-.538l-.659.08-.1-.18.1-.179Zm0,.537h.538l.06.1-.06.1h-.538l-.659.08-.1-.179.1-.179Zm0,.536h.538l.06.1-.06.1h-.538l-.659.08-.1-.179.1-.178Zm0,.556h.538l.06.1-.06.1h-.538l-.659.08-.1-.178.1-.179Zm0,.537h.538l.06.1-.06.1h-.538l-.659.1-.1-.2.1-.179Zm0,.536h.538l.06.1-.06.1h-.538l-.659.08-.1-.179.1-.179Zm0,.537h.538l.06.1-.06.1h-.538l-.659.08-.1-.179.1-.178Zm0,.536h.538l.06.1-.06.1h-1.2l-.1-.1.1-.179Zm2.436-7.387h-1V19.3l1,.8Zm6.59,9.274-1-.794H97.4V19.3l1,.8V33.734Zm-.36-13.6-.06-.1.06-.1h1.179l.06.1-.06.1Zm0,.537-.06-.1.06-.1h1.179l.06.1-.06.1Zm0,.536-.06-.1.06-.1h1.179l.06.1-.06.1Zm0,.556-.06-.1.06-.1h1.2l.06.1-.06.1Zm0,.537-.06-.1.06-.1h1.2l.06.1-.06.1Zm0,.536-.06-.1.06-.1h1.2l.06.1-.06.1Zm0,.557-.06-.1.06-.1h1.2l.06.1-.06.1Zm0,.536-.06-.1.06-.1h1.2l.06.1-.06.1Zm0,.536-.06-.1.06-.1h1.2l.06.1-.06.1Zm0,.557-.06-.1.06-.1h1.2l.06.1-.06.1Zm0,2.164-.06-.1.06-.1h1.2l.06.1-.06.1Zm0,.536-.06-.1.06-.1h1.2l.06.1-.06.1Zm0,.556-.06-.1.06-.1h1.2l.06.1-.06.1Zm0,.537-.06-.1.06-.1h1.2l.06.1-.06.1Zm0,.536-.06-.1.06-.1h1.2l.06.1-.06.1Zm0,.556-.06-.1.06-.1h1.2l.06.1-.06.1Zm0,.537-.06-.1.06-.1h1.2l.06.1-.06.1Zm0,.536-.06-.1.06-.1h1.2l.06.1-.06.1Zm0,.536-.06-.1.06-.1h1.2l.06.1-.06.1Zm0,.537-.06-.1.06-.1h1.2l.06.1-.06.1Z" transform="translate(-12.678 -3.118)"/><path class="b" d="M104.122,32.681V19.3h8.965v2.562H106.6v2.3h5.891v2.581H106.6v3.4h6.889v2.542Zm1,1.053-1-.794h9.624v-2.8l1,.794v2.8Zm8.067-1.351V30.437H106.3V26.446h5.891V24.459H106.3v-2.9h6.49V19.594h-8.367V32.383Zm-.74-12.451.06.1-.06.1H105.42l-.659.08-.1-.178.1-.1Zm-7.028.536h7.028l.06.1-.06.1H105.42l-.659.08-.1-.179.1-.179Zm0,.536h7.028l.06.1-.06.1H105.42l-.659.08-.1-.179.1-.179Zm0,.557h.539l.06.1-.06.1h-.539l-.659.08-.1-.179.1-.178Zm0,.536h.539l.06.1-.06.1h-.539l-.659.079-.1-.178.1-.179Zm0,.536h.539l.06.1-.06.1h-.539l-.659.08-.1-.179.1-.179Zm0,.557h.539l.06.1-.06.1h-.539l-.659.079-.1-.179.1-.178Zm0,.536h.539l.06.1-.06.1h-.539l-.659.1-.1-.2.1-.179Zm0,.536h.539l.06.1-.06.1h-.539l-.659.08-.1-.179.1-.179Zm0,.557h6.429l.06.1-.06.1H105.42l-.659.079-.1-.179.1-.158Zm0,.536h6.429l.06.1-.06.1H105.42l-.659.079-.1-.179.1-.178Zm0,.536h6.429l.06.1-.06.1H105.42l-.659.08-.1-.179.1-.178Zm0,.557h.539l.06.1-.06.1h-.539l-.659.079-.1-.179.1-.179Zm0,.536h.539l.06.1-.06.1h-.539l-.659.08-.1-.179.1-.179Zm0,.536h.539l.06.1-.06.1h-.539l-.659.08-.1-.179.1-.178Zm0,.556h.539l.06.1-.06.1h-.539l-.659.08-.1-.18.1-.179Zm0,.537h.539l.06.1-.06.1h-.539l-.659.08-.1-.179.1-.179Zm0,.536h.539l.06.1-.06.1h-.539l-.659.08-.1-.179.1-.178Zm0,.556h.539l.06.1-.06.1h-.539l-.659.08-.1-.178.1-.179Zm0,.537h.539l.06.1-.06.1h-.539l-.659.1-.1-.2.1-.179Zm0,.536h7.448l.06.1-.06.1H105.42l-.659.08-.1-.179.1-.179Zm0,.537h7.448l.06.1-.06.1H105.42l-.659.08-.1-.179.1-.178Zm0,.536h7.448l.06.1-.06.1h-8.107l-.1-.1.1-.179Zm7.927-9.73V19.3l1,.794v2.82h-6.489V23.9h-1V22.116Zm-.6,4.885V24.162l1,.794V27.8h-5.891V29.88h-1V27Z" transform="translate(-15.497 -3.118)"/><path class="b" d="M75.109,50.764H72.633v4.329H70.157V41.708h4.952c3.075,0,5.092,1.887,5.092,4.488s-1.877,4.568-5.092,4.568m.62,1.052H73.892v4.329H71.156l-1-.794h2.736V51.022h2.216c3.335,0,5.372-2.006,5.372-4.806a4.493,4.493,0,0,0-1.059-3,4.54,4.54,0,0,1,2.036,3.913c0,2.1-1.577,4.686-5.73,4.686m-.62-9.81H70.457V54.795h1.877V50.465h2.776c3.115,0,4.792-1.866,4.792-4.269s-1.837-4.19-4.792-4.19m1.478.338.06.1-.06.1H71.456l-.66.08-.1-.178.1-.1Zm-5.132.536h6.429l.06.1-.06.1H71.456l-.66.08-.1-.179.1-.179Zm0,.536h7.088l.06.1-.06.1H71.456l-.66.08-.1-.179.1-.179Zm0,.557h.538l.06.1-.06.1h-.538l-.66.08-.1-.178.1-.179Zm0,.536h.538l.06.1-.06.1h-.538l-.66.079-.1-.178.1-.179Zm0,.536h.538l.06.1-.06.1h-.538l-.66.08-.1-.179.1-.179Zm0,.557h.538l.06.1-.06.1h-.538l-.66.079-.1-.179.1-.178Zm0,.536h.538l.06.1-.06.1h-.538l-.66.1-.1-.2.1-.179Zm0,.536h.538l.06.1-.06.1h-.538l-.66.08-.1-.179.1-.179Zm0,.557h.538l.06.1-.06.1h-.538l-.66.079-.1-.179.1-.158Zm0,.536h.538l.06.1-.06.1h-.538l-.66.079-.1-.178.1-.179Zm0,.536h.538l.06.1-.06.1h-.538l-.66.08-.1-.178.1-.179Zm0,.557h7.088l.06.1-.06.1H71.456l-.66.079-.1-.179.1-.179Zm0,.536h6.429l.06.1-.06.1H71.456l-.66.08-.1-.179.1-.179Zm0,.536h5.132l.06.1-.06.1H71.456l-.66.08-.1-.179.1-.178Zm0,.556h.538l.06.1-.06.1h-.538l-.66.08-.1-.18.1-.179Zm0,.537h.538l.06.1-.06.1h-.538l-.66.08-.1-.179.1-.179Zm0,.536h.538l.06.1-.06.1h-.538l-.66.08-.1-.179.1-.178Zm0,.556h.538l.06.1-.06.1h-.538l-.66.08-.1-.178.1-.179Zm0,.537h.538l.06.1-.06.1h-.538l-.66.1-.1-.2.1-.179Zm0,.536h.538l.06.1-.06.1h-.538l-.66.08-.1-.179.1-.179Zm0,.537h.538l.06.1-.06.1h-.538L70.8,54l-.1-.179.1-.178Zm0,.536h.538l.06.1-.06.1H70.8l-.1-.1.1-.179ZM75.05,48.5H72.334V43.972h2.736c1.8,0,2.835.973,2.835,2.264,0,1.37-.919,2.264-2.855,2.264m.02-4.209H72.633v3.891H75.05c1.758,0,2.556-.774,2.556-1.946,0-1.112-.9-1.946-2.536-1.946m-2.177.258h2.177a2.2,2.2,0,0,1,2.017.874,3.07,3.07,0,0,0-.759-.08H73.892v2.581h-1Zm3.974-.378-.16-.1.06-.1H79l.06.1-.06.1Zm0,4.329-.06-.1.159-.1H79l.06.1-.06.1Zm.759-3.793-.06-.1.06-.1h1.618l.06.1-.06.1Zm.02,3.257-.06-.1.06-.1h1.6l.06.1-.06.1ZM78,45.243l-.06-.1.06-.1h1.418l.06.1-.06.1Zm0,2.185-.06-.1.06-.1h1.418l.06.1-.06.1Zm.2-1.628-.06-.1.06-.1h1.318l.06.1-.06.1Zm0,1.072-.06-.1.06-.1h1.318l.06.1-.06.1Zm.04-.536-.06-.1.06-.1h1.319l.06.1-.06.1Z" transform="translate(-10.436 -6.739)"/><path class="b" d="M85.609,55.093V41.708h2.476V52.551h6.75v2.542Zm1,1.053-1-.794h9.484v-2.8l1,.794v2.8Zm7.927-1.351V52.848h-6.75V42.006H85.908V54.795ZM87.446,42.344l.06.1-.06.1h-.539l-.659.08-.1-.178.1-.1Zm-.539.536h.539l.06.1-.06.1h-.539l-.659.079-.1-.178.1-.179Zm0,.536h.539l.06.1-.06.1h-.539l-.659.08-.1-.179.1-.179Zm0,.557h.539l.06.1-.06.1h-.539l-.659.08-.1-.179.1-.178Zm0,.536h.539l.06.1-.06.1h-.539l-.659.079-.1-.178.1-.179Zm0,.536h.539l.06.1-.06.1h-.539l-.659.08-.1-.179.1-.179Zm0,.557h.539l.06.1-.06.1h-.539l-.659.079-.1-.179.1-.178Zm0,.536h.539l.06.1-.06.1h-.539l-.659.1-.1-.2.1-.179Zm0,.536h.539l.06.1-.06.1h-.539l-.659.08-.1-.179.1-.179Zm0,.557h.539l.06.1-.06.1h-.539l-.659.079-.1-.179.1-.158Zm0,.536h.539l.06.1-.06.1h-.539l-.659.079-.1-.179.1-.178Zm0,.536h.539l.06.1-.06.1h-.539l-.659.08-.1-.179.1-.178Zm0,.556h.539l.06.1-.06.1h-.539l-.659.08-.1-.179.1-.179Zm0,.537h.539l.06.1-.06.1h-.539l-.659.08-.1-.179.1-.179Zm0,.536h.539l.06.1-.06.1h-.539l-.659.08-.1-.179.1-.178Zm0,.556h.539l.06.1-.06.1h-.539l-.659.08-.1-.179.1-.179Zm0,.537h.539l.06.1-.06.1h-.539l-.659.08-.1-.179.1-.179Zm0,.536h.539l.06.1-.06.1h-.539l-.659.08-.1-.179.1-.179Zm0,.556h.539l.06.1-.06.1h-.539l-.659.08-.1-.178.1-.179Zm0,.536h.539l.06.1-.06.1h-.539l-.659.1-.1-.2.1-.179Zm0,.537h7.308l.06.1-.06.1H86.907l-.659.08-.1-.179.1-.179Zm0,.537h7.308l.06.1-.06.1H86.907l-.659.08-.1-.179.1-.178Zm0,.536h7.308l.06.1-.06.1H86.248l-.1-.1.1-.179Zm2.436-1.966h-1V41.708l1,.794Z" transform="translate(-12.743 -6.739)"/><path class="b" d="M108.016,51.816h-5.091l-1.218,3.277h-2.7L104,41.708h2.935l4.992,13.385h-2.7Zm.14,1.053H103.8l-1.218,3.277h-2.576l-1-.794h2.875l1.218-3.277h4.753Zm.06-1.351,1.218,3.277h2.057l-4.753-12.788H104.2L99.45,54.795h2.057l1.238-3.277Zm-8.226,2.94-.1-.1.1-.179.658.08h.679l.06.1-.06.1Zm.2-.457-.1-.179.1-.178.659.08h.7l.06.1-.06.1h-.7Zm.2-.536-.1-.179.1-.179.659.08h.7l.06.1-.06.1h-.7Zm.2-.557-.1-.178.1-.179.659.08h.719l.06.1-.06.1h-.719Zm.2-.536-.1-.179.1-.178.659.08h.719l.06.1-.06.1h-.719Zm.2-.536-.1-.179.1-.178.658.079h.719l.06.1-.06.1h-.719Zm.2-.556-.1-.179.1-.179.658.08h7.947l.06.1-.06.1h-7.947Zm.2-.537-.1-.178.1-.2.66.1h7.547l.06.1-.06.1h-7.547Zm.2-.536-.1-.179.1-.178.658.079h7.149l.06.1-.06.1h-7.149Zm.2-.576-.1-.158.1-.179.658.08h.74l.06.1-.06.1h-.74Zm.2-.516-.1-.178.1-.179.659.079h.739l.06.1-.06.1h-.739Zm.2-.536-.1-.179.1-.178.658.079h.739l.06.1-.06.1h-.739Zm.219-.556-.1-.179.1-.179.659.08h.719l.06.1-.06.1h-.719Zm.2-.536-.1-.179.1-.179.659.079h.719l.06.1-.06.1h-.719Zm.18-.537-.1-.179.1-.179.659.08h.759l.06.1-.06.1h-.759ZM103,46.4l-.1-.179.1-.179.658.08h.739l.06.1-.06.1h-.739Zm.2-.536-.1-.179.1-.18.659.08h.759l.06.1-.06.1h-.759Zm.181-.537-.1-.179.1-.179.658.08h.779l.06.1-.06.1h-.779Zm2.1-1.112,2.017,5.381h-4.054Zm-1.877.556-.1-.179.1-.178.658.079h.76l.06.1-.06.1h-.76Zm.2-.537-.1-.179.1-.2.658.1h.759l.06.1-.06.1h-.759Zm.04,5.064h3.235l-1.6-4.289Zm.16-5.6-.1-.179.1-.179.659.08h2.316l.06.1-.06.1h-2.316Zm.2-.536-.1-.179.1-.179.658.08h1.917l.06.1-.06.1h-1.917Zm1.257,2.582.44,1.171-.8,2.125h-.879Zm-1.078-3.118-.1-.178.1-.1H106.6l.06.1-.06.1h-1.558Zm2.8,1.331.06.1-.06.1H105.74l-.06-.1.06-.1Zm.2.536.06.1-.06.1h-1.418l-.06-.1.06-.1Zm.2.556.06.1-.06.1H106.16l-.06-.1.06-.1Zm.2.537.06.1-.06.1h-1.417l-.06-.1.06-.1Zm.2.536.06.1-.06.1h-1.418l-.06-.1.06-.1Zm.2.556.06.1-.06.1h-1.4l-.06-.1.06-.1Zm.2.536.06.1-.06.1h-1.4l-.06-.1.06-.1Zm.219.537.06.1-.06.1h-1.418l-.06-.1.06-.1Zm.639,7.606h3.055L107.2,41.708l1.258,1.053,4.992,13.385h-3.215ZM108.8,48.3l.06.1-.06.1h-1.4l-.06-.1.06-.1Zm.2.536.06.1-.06.1h-1.418l-.06-.1.06-.1Zm.2.537.06.1-.06.1h-1.4l-.06-.1.06-.1Zm.8,2.184.06.1-.06.1h-1.377l-.06-.1.06-.1Zm.2.537.06.1-.06.1h-1.378l-.06-.1.06-.1Zm.2.536.06.1-.06.1h-1.377l-.06-.1.06-.1Zm.2.556.06.1-.06.1h-1.377l-.06-.1.06-.1Zm.2.537.06.1-.06.1h-1.378l-.06-.1.06-.1Zm.2.536.06.1-.06.1h-1.378l-.06-.1.06-.1Z" transform="translate(-14.693 -6.739)"/><path class="b" d="M125.8,55.093l-6.11-9.452v9.452h-2.476V41.709h3.235l6.11,9.571V41.709h2.476V55.093Zm-5.85-8.578,1,1.589v8.042H118.21l-1-.794h2.736Zm8.786,8.281V42.006h-1.878V52.313l-6.61-10.307h-2.735V54.8h1.877V44.548L126,54.8Zm-8.567-12.451.06.1-.06.1h-1.657l-.658.08-.1-.179.1-.1Zm-1.657.537h2.017l.06.1-.06.1h-2.017l-.658.079-.1-.179.1-.178Zm0,.536h2.356l.06.1-.06.1h-2.356l-.658.079-.1-.179.1-.178Zm0,.556h.539l.06.1-.06.1h-.539l-.658.08-.1-.179.1-.179Zm0,.537h.539l.06.1-.06.1h-.539l-.658.079-.1-.179.1-.179Zm0,.536h.539l.06.1-.06.1h-.539l-.658.079-.1-.179.1-.178Zm0,.556h.539l.06.1-.06.1h-.539l-.658.08-.1-.179.1-.179Zm0,.536h.539l.06.1-.06.1h-.539l-.658.1-.1-.2.1-.179Zm0,.537h.539l.06.1-.06.1h-.539l-.658.08-.1-.18.1-.178Zm0,.556h.539l.06.1-.06.1h-.539l-.658.079-.1-.178.1-.159Zm0,.536h.539l.06.1-.06.1h-.539l-.658.08-.1-.179.1-.179Zm0,.537h.539l.06.1-.06.1h-.539l-.658.08-.1-.179.1-.179Zm0,.556h.539l.06.1-.06.1h-.539l-.658.079-.1-.178.1-.179Zm0,.536h.539l.06.1-.06.1h-.539l-.658.08-.1-.178.1-.18Zm0,.536h.539l.06.1-.06.1h-.539l-.658.08-.1-.179.1-.179Zm0,.557h.539l.06.1-.06.1h-.539l-.658.08-.1-.179.1-.179Zm0,.536h.539l.06.1-.06.1h-.539l-.658.08-.1-.178.1-.179Zm0,.536h.539l.06.1-.06.1h-.539l-.658.08-.1-.178.1-.179Zm0,.557h.539l.06.1-.06.1h-.539l-.658.08-.1-.179.1-.179Zm0,.536h.539l.06.1-.06.1h-.539l-.658.1-.1-.2.1-.178Zm0,.536h.539l.06.1-.06.1h-.539l-.658.08-.1-.178.1-.179Zm0,.537h.539l.06.1-.06.1h-.539l-.658.08-.1-.179.1-.179Zm0,.536h.539l.06.1-.06.1h-1.2l-.1-.1.1-.179Zm.938-10.087-.06-.1.06-.1h1.777l.06.1-.06.1Zm.34.537-.06-.1.06-.1h1.777l.06.1-.06.1Zm.34.536-.06-.1.06-.1H121.9l.06.1-.06.1Zm.379.556-.06-.1.06-.1h1.757l.06.1-.06.1Zm.32.536-.06-.1.06-.1H122.6l.06.1-.06.1Zm-.041-4.627,1.358.794,4.153,6.553v1.29Zm.4,5.163-.06-.1.06-.1h1.777l.06.1-.06.1Zm.359.556-.06-.1.06-.1H123.3l.06.1-.06.1Zm.339.536-.06-.1.06-.1h1.738l.06.1-.06.1Zm.359.537-.06-.1.06-.1H124l.06.1-.06.1Zm.34.556-.06-.1.06-.1h1.758l.06.1-.06.1Zm.359.536-.06-.1.06-.1H124.7l.06.1-.06.1Zm.34.536-.06-.1.06-.1h1.758l.06.1-.06.1Zm.379.557-.06-.1.06-.1H125.4l.06.1-.06.1Zm.34.536-.06-.1.06-.1h1.737l.06.1-.06.1Zm.34.536-.06-.1.06-.1h1.717l.06.1-.06.1Zm.359.557-.06-.1.06-.1h1.738l.06.1-.06.1Zm.34.536-.06-.1.06-.1h1.716l.06.1-.06.1Zm.339.536-.06-.1.06-.1h3.015l.06.1-.06.1Zm.359.536-.06-.1.06-.1h2.655l.06.1-.06.1ZM127,56.146l-1-.794h3.295V41.709l1,.794V56.146Zm-.919-1.688-.06-.1.06-.1h2.316l.06.1-.06.1Zm1.118-11.915-.06-.1.06-.1h1.179l.06.1-.06.1Zm0,.537-.06-.1.06-.1h1.179l.06.1-.06.1Zm0,.536-.06-.1.06-.1h1.179l.06.1-.06.1Zm0,.556-.06-.1.06-.1h1.2l.06.1-.06.1Zm0,.537-.06-.1.06-.1h1.2l.06.1-.06.1Zm0,.536-.06-.1.06-.1h1.2l.06.1-.06.1Zm0,.556-.06-.1.06-.1h1.2l.06.1-.06.1Zm0,.536-.06-.1.06-.1h1.2l.06.1-.06.1Zm0,.537-.06-.1.06-.1h1.2l.06.1-.06.1Zm0,.556-.06-.1.06-.1h1.2l.06.1-.06.1Zm0,.536-.06-.1.06-.1h1.2l.06.1-.06.1Zm0,.537-.06-.1.06-.1h1.2l.06.1-.06.1Zm0,.556-.06-.1.06-.1h1.2l.06.1-.06.1Zm0,.536-.06-.1.06-.1h1.2l.06.1-.06.1Zm0,.536-.06-.1.06-.1h1.2l.06.1-.06.1Zm0,.557-.06-.1.06-.1h1.2l.06.1-.06.1Zm0,.536-.06-.1.06-.1h1.2l.06.1-.06.1Zm0,.536-.06-.1.06-.1h1.2l.06.1-.06.1Zm0,.557-.06-.1.06-.1h1.2l.06.1-.06.1Zm0,.536-.06-.1.06-.1h1.2l.06.1-.06.1Z" transform="translate(-17.412 -6.739)"/><path class="b" d="M141.357,44.27V55.093h-2.476V44.27h-4.652V41.708h11.782V44.27Zm-2.735,1.053h-3.4l-1-.794h4.393Zm7.089-1.35V42.006H134.53v1.966h4.652V54.795h1.878V43.972Zm-.32-1.628.06.1-.06.1h-9.845l-.658.08-.1-.178.1-.1Zm-9.845.536h9.845l.06.1-.06.1h-9.845l-.658.08-.1-.179.1-.179Zm0,.536h9.845l.06.1-.06.1h-10.5l-.1-.1.1-.179Zm7.069,1.907V56.146h-2.735l-1-.794h2.737V44.528h4.652v-2.82l1,.8v2.819Zm-2.416-1.35h.539l.06.1-.06.1H140.2l-.658.08-.1-.179.1-.178Zm0,.536h.539l.06.1-.06.1H140.2l-.658.079-.1-.178.1-.179Zm0,.536h.539l.06.1-.06.1H140.2l-.658.08-.1-.179.1-.179Zm0,.557h.539l.06.1-.06.1H140.2l-.658.079-.1-.179.1-.178Zm0,.536h.539l.06.1-.06.1H140.2l-.658.1-.1-.2.1-.179Zm0,.536h.539l.06.1-.06.1H140.2l-.658.08-.1-.179.1-.179Zm0,.557h.539l.06.1-.06.1H140.2l-.658.079-.1-.179.1-.158Zm0,.536h.539l.06.1-.06.1H140.2l-.658.079-.1-.179.1-.178Zm0,.536h.539l.06.1-.06.1H140.2l-.658.08-.1-.179.1-.178Zm0,.557h.539l.06.1-.06.1H140.2l-.658.079-.1-.179.1-.179Zm0,.536h.539l.06.1-.06.1H140.2l-.658.08-.1-.179.1-.179Zm0,.536h.539l.06.1-.06.1H140.2l-.658.08-.1-.179.1-.178Zm0,.556h.539l.06.1-.06.1H140.2l-.658.08-.1-.18.1-.179Zm0,.537h.539l.06.1-.06.1H140.2l-.658.08-.1-.179.1-.179Zm0,.536h.539l.06.1-.06.1H140.2l-.658.08-.1-.179.1-.178Zm0,.556h.539l.06.1-.06.1H140.2l-.658.08-.1-.178.1-.179Zm0,.537h.539l.06.1-.06.1H140.2l-.658.1-.1-.2.1-.179Zm0,.536h.539l.06.1-.06.1H140.2l-.658.08-.1-.179.1-.179Zm0,.537h.539l.06.1-.06.1H140.2l-.658.08-.1-.179.1-.178Zm0,.536h.539l.06.1-.06.1h-1.2l-.1-.1.1-.179Z" transform="translate(-19.941 -6.739)"/><path class="b" d="M151.2,55.093V41.708h8.965V44.27h-6.489v2.3h5.891v2.581h-5.891v3.4h6.889v2.542Zm1,1.053-1-.794h9.624v-2.8l1,.794v2.8Zm8.067-1.351V52.849h-6.89V48.858h5.891V46.871h-5.891v-2.9h6.49V42.006H151.5V54.795Zm-.74-12.451.06.1-.06.1H152.5l-.659.08-.1-.178.1-.1Zm-7.028.536h7.028l.06.1-.06.1H152.5l-.659.08-.1-.179.1-.179Zm0,.536h7.028l.06.1-.06.1H152.5l-.659.08-.1-.179.1-.179Zm0,.557h.539l.06.1-.06.1H152.5l-.659.08-.1-.179.1-.178Zm0,.536h.539l.06.1-.06.1H152.5l-.659.079-.1-.178.1-.179Zm0,.536h.539l.06.1-.06.1H152.5l-.659.08-.1-.179.1-.179Zm0,.557h.539l.06.1-.06.1H152.5l-.659.079-.1-.179.1-.178Zm0,.536h.539l.06.1-.06.1H152.5l-.659.1-.1-.2.1-.179Zm0,.536h.539l.06.1-.06.1H152.5l-.659.08-.1-.179.1-.179Zm0,.557h6.429l.06.1-.06.1H152.5l-.659.079-.1-.179.1-.158Zm0,.536h6.429l.06.1-.06.1H152.5l-.659.079-.1-.179.1-.178Zm0,.536h6.429l.06.1-.06.1H152.5l-.659.08-.1-.179.1-.178Zm0,.557h.539l.06.1-.06.1H152.5l-.659.079-.1-.179.1-.179Zm0,.536h.539l.06.1-.06.1H152.5l-.659.08-.1-.179.1-.179Zm0,.536h.539l.06.1-.06.1H152.5l-.659.08-.1-.179.1-.178Zm0,.556h.539l.06.1-.06.1H152.5l-.659.08-.1-.18.1-.179Zm0,.537h.539l.06.1-.06.1H152.5l-.659.08-.1-.179.1-.179Zm0,.536h.539l.06.1-.06.1H152.5l-.659.08-.1-.179.1-.178Zm0,.556h.539l.06.1-.06.1H152.5l-.659.08-.1-.178.1-.179Zm0,.537h.539l.06.1-.06.1H152.5l-.659.1-.1-.2.1-.179Zm0,.536h7.448l.06.1-.06.1H152.5l-.659.08-.1-.179.1-.179Zm0,.537h7.448l.06.1-.06.1H152.5l-.659.08-.1-.179.1-.178Zm0,.536h7.448l.06.1-.06.1h-8.107l-.1-.1.1-.179Zm7.927-9.73v-2.82l1,.794v2.82h-6.489v.993h-1V44.528Zm-.6,4.885V46.574l1,.794v2.839h-5.891v2.085h-1V49.413Z" transform="translate(-22.503 -6.739)"/><path class="b" d="M174.178,55.093l-3.316-4.865h-2.1v4.865H166.29V41.709h5.371c2.756,0,4.753,1.489,4.753,4.091a4.125,4.125,0,0,1-2.876,3.972l3.714,5.322Zm-3.415-4.607.539.794h-1.278v4.865h-2.736l-1-.794h2.735V50.486Zm5.91,4.309-3.594-5.182a3.9,3.9,0,0,0,3.035-3.813c0-2.4-1.857-3.793-4.453-3.793h-5.072V54.795h1.877V49.93h2.556l3.315,4.865Zm-3.514-12.45.06.1-.06.1h-5.571l-.659.08-.1-.179.1-.1Zm-5.571.536h6.788l.06.1-.06.1h-6.788l-.659.08-.1-.179.1-.179Zm0,.537h7.428l.06.1-.06.1h-7.428l-.659.079-.1-.179.1-.178Zm0,.556h.539l.06.1-.06.1h-.539l-.659.08-.1-.178.1-.179Zm0,.536h.539l.06.1-.06.1h-.539l-.659.08-.1-.179.1-.179Zm0,.537h.539l.06.1-.06.1h-.539l-.659.079-.1-.179.1-.179Zm0,.556h.539l.06.1-.06.1h-.539l-.659.079-.1-.178.1-.179Zm0,.536h.539l.06.1-.06.1h-.539l-.659.1-.1-.2.1-.179Zm0,.536h.539l.06.1-.06.1h-.539l-.659.08-.1-.18.1-.179Zm0,.557h.539l.06.1-.06.1h-.539l-.659.079-.1-.178.1-.159Zm0,.516h.539l.06.1-.06.1h-.539l-.659.08-.1-.179.1-.159Zm0,.556h7.088l.06.1-.06.1h-7.088l-.659.08-.1-.178.1-.179Zm0,.557h6.27l.06.1-.06.1h-6.27l-.659.079-.1-.179.1-.178Zm0,.536h5.231l.06.1-.06.1h-5.231l-.659.08-.1-.179.1-.179Zm0,.536h.539l.06.1-.06.1h-.539l-.659.08-.1-.178.1-.179Zm0,.557h.539l.06.1-.06.1h-.539l-.659.08-.1-.18.1-.178Zm0,.536h.539l.06.1-.06.1h-.539l-.659.08-.1-.179.1-.178Zm0,.536h.539l.06.1-.06.1h-.539l-.659.08-.1-.178.1-.179Zm0,.557h.539l.06.1-.06.1h-.539l-.659.08-.1-.179.1-.179Zm0,.536h.539l.06.1-.06.1h-.539l-.659.1-.1-.2.1-.179Zm0,.536h.539l.06.1-.06.1h-.539l-.659.08-.1-.179.1-.178Zm0,.537h.539l.06.1-.06.1h-.539l-.659.08-.1-.178.1-.179Zm0,.536h.539l.06.1-.06.1h-1.2l-.1-.1.1-.179Zm3.914-6.315h-3.036V43.953h3.156c1.577,0,2.456.615,2.456,1.866,0,1.43-.9,2.125-2.576,2.125m.12-3.673h-2.856v3.375H171.5c1.5,0,2.276-.6,2.276-1.827,0-1.052-.759-1.548-2.156-1.548m-2.6.258H171.6c1.117,0,1.637.3,1.837.833a4.933,4.933,0,0,0-.56-.04h-2.855v2.065h-1Zm2.437,5.6-.06-.1.06-.1h1.557l.06.1-.06.1Zm.359.557-.06-.1.06-.1H173.4l.06.1-.06.1Zm.38.536-.06-.1.06-.1h1.577l.06.1-.06.1Zm.359.536-.06-.1.06-.1h1.577l.06.1-.06.1Zm.4.557-.06-.1.06-.1h1.557l.06.1-.06.1Zm.16-4.369-.06-.08.16-.1h1.957l.06.1-.06.08Zm.239-3.774-.16-.1.06-.1H175.4l.06.1-.06.1Zm-.06,8.679-.06-.1.06-.1h1.6l.06.1-.06.1Zm.379.536-.06-.1.06-.1h1.617l.06.1-.06.1Zm.18-5.957-.06-.1.06-.1h1.617l.06.1-.06.1Zm1.5,8.718-1-.794h3.374l-3.794-5.441a4.022,4.022,0,0,0,2.736-4.092,4.308,4.308,0,0,0-.659-2.4,4.279,4.279,0,0,1,1.657,3.435,4.161,4.161,0,0,1-2.376,3.614l3.994,5.68ZM174,44.707l-.06-.1.06-.1h1.617l.06.1-.06.1Zm.019,9.214-.06-.1.06-.1h1.638l.06.1-.06.1Zm.22-7.049-.06-.1.06-.1h1.417l.06.1-.06.1Zm.08-1.628-.06-.1.06-.1h1.418l.06.1-.06.1Zm.08,1.092-.06-.1.06-.1h1.358l.06.1-.06.1Zm0,8.122-.06-.1.06-.1h1.617l.06.1-.06.1Zm.02-8.658-.06-.1.06-.1h1.358l.06.1-.06.1Z" transform="translate(-24.704 -6.739)"/><path class="b" d="M190.485,45.726a3.538,3.538,0,0,0-3.295-1.867c-1.477,0-2.336.5-2.336,1.35,0,2.582,7.507.7,7.507,6.077,0,2.522-2.416,4.011-5.311,4.011a6.472,6.472,0,0,1-5.671-2.522l1.857-1.767a4.221,4.221,0,0,0,3.854,1.826c1.377,0,2.636-.456,2.636-1.509,0-2.621-7.508-.834-7.508-6.037,0-2.005,1.618-3.892,4.932-3.892a5.973,5.973,0,0,1,5.172,2.542Zm1.438-1.807a5.635,5.635,0,0,0-4.772-2.224c-3.1,0-4.633,1.748-4.633,3.594,0,5.024,7.508,3.039,7.508,6.017,0,1.251-1.358,1.826-2.935,1.826a4.474,4.474,0,0,1-3.894-1.688l-1.4,1.371a6.264,6.264,0,0,0,5.252,2.164c2.715,0,5.011-1.37,5.011-3.693,0-5.262-7.507-3.137-7.507-6.077,0-1.033.919-1.647,2.636-1.647a3.742,3.742,0,0,1,3.354,1.707Zm-8.886,8.956h1.517l.16.1-.06.1h-1.617l-.679.08-.1-.178.1-.179Zm.34-.536h.34l.159.1-.06.1h-.439l-.679.1-.1-.2.1-.179Zm.18-7.05h.678l.06.1-.06.1h-.678l-.679.08-.1-.179.1-.179Zm.04-.556h.659l.06.1-.06.1H183.6l-.679.08-.1-.179.1-.178Zm0,1.092h.779l.06.1-.06.1H183.6l-.679.1-.1-.2.1-.179Zm-.739,2.144c2.076,2.125,6.33,1.728,6.57,3.257-1.6-.417-5.452-.993-6.57-3.257m.878-3.773h.779l.06.1-.06.1h-.779l-.678.08-.1-.179.1-.179Zm.021,2.164h1.018l.06.1-.06.1h-1.018l-.679.08-.1-.179.1-.179Zm0,7.049h6.909l.06.1-.06.1h-6.909l-.679.08-.1-.179.1-.179Zm-.62-1.35-.06-.159.06-.159.16.06.06.1-.06.1Zm.879-8.4h1l.06.1-.12.1h-.938l-.678.08-.1-.179.1-.179Zm.06,3.257h1.716l.06.1-.06.1h-1.716l-.679.08-.1-.178.1-.16Zm8.546,4.389a4.576,4.576,0,0,0-.5-2.165,3.6,3.6,0,0,1,1.5,2.959c0,2.005-1.777,4.249-5.571,4.249a7.209,7.209,0,0,1-4.632-1.548,7.971,7.971,0,0,0,3.634.754c2.895,0,5.571-1.449,5.571-4.249m-9.105-.5,1.936.833a3.285,3.285,0,0,0,.838.934,4.071,4.071,0,0,1-2.775-1.768m.938-7.705h6.39l.06.1-.06.1h-6.39l-.678.08-.1-.179.1-.178Zm.06,4.348h3.115l.06.1-.06.1h-3.115l-.678.08-.1-.179.1-.179Zm.08,6.494h5.271l.06.1-.06.1h-5.271l-.679.079-.1-.179.1-.179Zm.559-11.379h4.893l.06.1-.06.1h-4.893l-.678.079-.1-.179.12-.178Zm.14,5.421h4.194l.06.1-.06.1h-4.194l-.678.08-.1-.179.1-.179Zm1.9-3.872a3.2,3.2,0,0,1,2.376.933,4.644,4.644,0,0,0-1.118-.139c-1.478,0-2.337.5-2.337,1.33-.619-.2-1-.5-1-.992,0-.636.858-1.132,2.076-1.132m-1.118,10.366h2.515l.061.1-.061.1h-3.194l-.1-.1.1-.179Zm2.716-12.45.06.1-.06.1h-2.616l-.679.079-.1-.179.1-.1Zm-2.057,6.513h3.734l.06.1-.06.1h-3.734l-.679.08-.1-.178.1-.179Zm2,.536h2.356l.06.1-.06.1h-2.356l-.678.08-.1-.178.1-.179Zm.74-5.222-.16-.1.06-.1h2.077l.06.1-.06.1Zm.678,9.016h1.078l.06.1-.06.1h-1.078l-.678.08-.1-.178.2-.179Zm.08-3.257h1.2l.06.1-.06.1h-1.2l-.579.08-.2-.179.1-.179Zm.5,2.721h.8l.06.1-.06.1h-.8l-.678.1-.1-.2.1-.179Zm.06-2.165h.84l.06.1-.06.1h-.84l-.678.08-.1-.179.1-.178Zm-.558-5.778-.08-.1.06-.1h.919l.06.1-.06.1ZM191,50.711h.719l.06.1-.06.1H191l-.679.08-.1-.178.1-.179Zm.02,1.092h.639l.06.1-.06.1h-.639l-.678.08-.1-.179.1-.178Zm.06-.556h.659l.06.1-.06.1h-.659l-.719.08-.1-.179.1-.179Zm-.539-6.414-.06-.1.06-.1h.161l.06.1-.06.1Zm.539-2.582a11.319,11.319,0,0,1,2.776,2.145l-2.436,2.164-.858-.516L192.782,44a10.255,10.255,0,0,0-1.7-1.748" transform="translate(-26.957 -6.685)"/><path class="b" d="M75.109,73.176H72.633V77.5H70.157V64.12h4.952c3.075,0,5.092,1.887,5.092,4.488s-1.877,4.568-5.092,4.568m.62,1.052H73.892v4.329H71.156l-1-.794h2.736V73.434h2.216c3.335,0,5.372-2.006,5.372-4.806a4.489,4.489,0,0,0-1.059-3,4.537,4.537,0,0,1,2.036,3.912c0,2.1-1.577,4.686-5.73,4.686m-.62-9.81H70.457V77.207h1.877V72.877h2.776c3.115,0,4.792-1.866,4.792-4.269s-1.837-4.19-4.792-4.19m1.478.338.06.1-.06.1H71.456l-.66.08-.1-.178.1-.1Zm-5.132.536h6.429l.06.1-.06.1H71.456l-.66.08-.1-.179.1-.179Zm0,.536h7.088l.06.1-.06.1H71.456l-.66.08-.1-.179.1-.179Zm0,.557h.538l.06.1-.06.1h-.538l-.66.08-.1-.178.1-.179Zm0,.536h.538l.06.1-.06.1h-.538l-.66.079-.1-.178.1-.179Zm0,.536h.538l.06.1-.06.1h-.538l-.66.08-.1-.179.1-.179Zm0,.557h.538l.06.1-.06.1h-.538l-.66.079-.1-.179.1-.178Zm0,.536h.538l.06.1-.06.1h-.538l-.66.1-.1-.2.1-.179Zm0,.536h.538l.06.1-.06.1h-.538l-.66.08-.1-.179.1-.179Zm0,.557h.538l.06.1-.06.1h-.538l-.66.079-.1-.179.1-.158Zm0,.536h.538l.06.1-.06.1h-.538l-.66.079-.1-.178.1-.179Zm0,.536h.538l.06.1-.06.1h-.538l-.66.08-.1-.178.1-.179Zm0,.557h7.088l.06.1-.06.1H71.456l-.66.079-.1-.179.1-.179Zm0,.536h6.429l.06.1-.06.1H71.456l-.66.08-.1-.179.1-.179Zm0,.536h5.132l.06.1-.06.1H71.456l-.66.08-.1-.179.1-.178Zm0,.556h.538l.06.1-.06.1h-.538l-.66.08L70.7,73l.1-.179Zm0,.537h.538l.06.1-.06.1h-.538l-.66.079-.1-.179.1-.179Zm0,.536h.538l.06.1-.06.1h-.538l-.66.08-.1-.179.1-.178Zm0,.556h.538l.06.1-.06.1h-.538l-.66.08-.1-.178.1-.179Zm0,.537h.538l.06.1-.06.1h-.538l-.66.1-.1-.2.1-.179Zm0,.536h.538l.06.1-.06.1h-.538l-.66.08-.1-.179.1-.179Zm0,.537h.538l.06.1-.06.1h-.538l-.66.08-.1-.179.1-.178Zm0,.536h.538l.06.1-.06.1H70.8l-.1-.1.1-.179Zm3.594-5.759H72.334V66.384h2.736c1.8,0,2.835.973,2.835,2.264,0,1.37-.919,2.264-2.855,2.264m.02-4.209H72.633v3.891H75.05c1.758,0,2.556-.774,2.556-1.946,0-1.112-.9-1.946-2.536-1.946m-2.177.258h2.177a2.2,2.2,0,0,1,2.017.874,3.07,3.07,0,0,0-.759-.08H73.892v2.581h-1Zm3.974-.378-.16-.1.06-.1H79l.06.1-.06.1Zm0,4.329-.06-.1.159-.1H79l.06.1-.06.1Zm.759-3.793-.06-.1.06-.1h1.618l.06.1-.06.1Zm.02,3.257-.06-.1.06-.1h1.6l.06.1-.06.1ZM78,67.655l-.06-.1.06-.1h1.418l.06.1-.06.1Zm0,2.185-.06-.1.06-.1h1.418l.06.1-.06.1Zm.2-1.628-.06-.1.06-.1h1.318l.06.1-.06.1Zm0,1.072-.06-.1.06-.1h1.318l.06.1-.06.1Zm.04-.536-.06-.1.06-.1h1.319l.06.1-.06.1Z" transform="translate(-10.436 -10.36)"/><path class="b" d="M93.5,77.5,90.181,72.64h-2.1V77.5H85.609V64.121H90.98c2.756,0,4.753,1.489,4.753,4.091a4.125,4.125,0,0,1-2.876,3.972L96.571,77.5ZM90.082,72.9l.539.794H89.343v4.865H86.607l-1-.794h2.735V72.9Zm5.91,4.309L92.4,72.024a3.9,3.9,0,0,0,3.035-3.812c0-2.4-1.857-3.793-4.453-3.793H85.908V77.207h1.877V72.342h2.556l3.315,4.865Zm-3.514-12.45.06.1-.06.1H86.907l-.659.08-.1-.179.1-.1Zm-5.571.536H93.7l.06.1-.06.1H86.907l-.659.08-.1-.179.1-.179Zm0,.537h7.428l.06.1-.06.1H86.907l-.659.079-.1-.179.1-.178Zm0,.556h.539l.06.1-.06.1h-.539l-.659.08-.1-.178.1-.179Zm0,.536h.539l.06.1-.06.1h-.539l-.659.08-.1-.179.1-.179Zm0,.537h.539l.06.1-.06.1h-.539l-.659.079-.1-.179.1-.179Zm0,.556h.539l.06.1-.06.1h-.539l-.659.079-.1-.178.1-.179Zm0,.536h.539l.06.1-.06.1h-.539l-.659.1-.1-.2.1-.179Zm0,.536h.539l.06.1-.06.1h-.539l-.659.08-.1-.18.1-.179Zm0,.557h.539l.06.1-.06.1h-.539l-.659.079-.1-.178.1-.159Zm0,.516h.539l.06.1-.06.1h-.539l-.659.08-.1-.179.1-.159Zm0,.556H94l.06.1-.06.1H86.907l-.659.08-.1-.178.1-.179Zm0,.557h6.27l.06.1-.06.1h-6.27l-.659.079-.1-.179.1-.178Zm0,.536h5.231l.06.1-.06.1H86.907l-.659.08-.1-.179.1-.179Zm0,.536h.539l.06.1-.06.1h-.539l-.659.08-.1-.178.1-.179Zm0,.557h.539l.06.1-.06.1h-.539l-.659.08-.1-.18.1-.178Zm0,.536h.539l.06.1-.06.1h-.539l-.659.079-.1-.179.1-.178Zm0,.536h.539l.06.1-.06.1h-.539l-.659.08-.1-.178.1-.179Zm0,.557h.539l.06.1-.06.1h-.539l-.659.08-.1-.179.1-.179Zm0,.536h.539l.06.1-.06.1h-.539l-.659.1-.1-.2.1-.179Zm0,.536h.539l.06.1-.06.1h-.539l-.659.08-.1-.179.1-.178Zm0,.537h.539l.06.1-.06.1h-.539l-.659.08-.1-.178.1-.179Zm0,.536h.539l.06.1-.06.1h-1.2l-.1-.1.1-.179Zm3.914-6.315H87.785V66.365h3.156c1.577,0,2.456.615,2.456,1.866,0,1.43-.9,2.125-2.576,2.125m.12-3.673H88.085v3.375H90.82c1.5,0,2.276-.6,2.276-1.827,0-1.052-.759-1.548-2.156-1.548m-2.6.258h2.577c1.117,0,1.637.3,1.837.833a4.935,4.935,0,0,0-.56-.04H89.343V69.8h-1Zm2.437,5.6-.06-.1.06-.1h1.557l.06.1-.06.1Zm.359.557-.06-.1.06-.1h1.578l.06.1-.06.1Zm.38.536-.06-.1.06-.1H93.1l.06.1-.06.1Zm.359.536-.06-.1.06-.1h1.577l.06.1-.06.1Zm.4.557-.06-.1.06-.1h1.557l.06.1-.06.1Zm.16-4.369-.06-.08.16-.1h1.957l.06.1-.06.08Zm.239-3.774-.16-.1.06-.1h2.136l.06.1-.06.1Zm-.06,8.679-.06-.1.06-.1h1.6l.06.1-.06.1ZM93,75.8l-.06-.1.06-.1h1.617l.06.1-.06.1Zm.18-5.957-.06-.1.06-.1h1.617l.06.1-.06.1Zm1.5,8.717-1-.794h3.374l-3.794-5.441a4.022,4.022,0,0,0,2.736-4.092,4.306,4.306,0,0,0-.659-2.4,4.279,4.279,0,0,1,1.657,3.435,4.161,4.161,0,0,1-2.376,3.614l3.994,5.68ZM93.317,67.119l-.06-.1.06-.1h1.617l.06.1-.06.1Zm.019,9.214-.06-.1.06-.1h1.637l.06.1-.06.1Zm.22-7.049-.06-.1.06-.1h1.417l.06.1-.06.1Zm.08-1.628-.06-.1.06-.1h1.418l.06.1-.06.1Zm.08,1.092-.06-.1.06-.1h1.358l.06.1-.06.1Zm0,8.122-.06-.1.06-.1h1.617l.06.1-.06.1Zm.02-8.658-.06-.1.06-.1h1.358l.06.1-.06.1Z" transform="translate(-12.718 -10.36)"/><path class="b" d="M100.723,70.74c0-3.674,2.575-6.931,6.509-6.931s6.489,3.3,6.489,6.97-2.577,6.931-6.489,6.931c-3.934,0-6.509-3.3-6.509-6.97m12.7.039c0-3.653-2.456-6.672-6.19-6.672-3.714,0-6.21,2.959-6.21,6.633,0,3.693,2.5,6.672,6.21,6.672,3.734,0,6.19-2.978,6.19-6.633M102.061,70.4h.658l.06.1-.06.1h-.658l-.679.08-.1-.179.1-.179Zm0,.556h.658l.06.1-.06.1h-.658l-.679.08-.1-.179.1-.178Zm.04-1.092h.658l.06.1-.06.1H102.1l-.679.08-.1-.178.1-.179Zm0,1.628h.658l.06.1-.06.1H102.1l-.679.08-.1-.178.1-.179Zm-.12-2.164h.9l.06.1-.06.1h-.9l-.479.08-.1-.178.1-.16Zm.12,2.7h.779l.06.1-.06.1H102.1l-.58.08-.1-.179.08-.179Zm.119-3.257h.819l.06.1-.06.1H102.3l-.679.08-.1-.179.021-.179Zm.08,3.813h.739l.06.1-.06.1H102.3l-.679.08-.1-.179.1-.178Zm.08-4.349h.839l.06.1-.06.1h-.839l-.678.1-.1-.2.1-.179Zm.1,4.886h.779l.06.1-.06.1h-.779l-.679.08-.1-.178.1-.179Zm.1-5.422h.939l.06.1-.06.1h-.939l-.678.08-.1-.179.1-.179Zm.12,5.958h.859l.06.1-.06.1H102.7l-.679.08-.1-.178.1-.179Zm.16-6.513h1.059l.06.1-.06.1h-1.059l-.678.08-.1-.179.1-.179Zm.12,7.069h1l.06.1-.06.1h-1l-.679.08-.1-.179.1-.179Zm.219-7.605h1.2l.06.1-.06.1h-1.2l-.679.08-.1-.179.1-.18Zm.14,8.142h1.218l.06.1-.06.1h-1.218l-.679.1-.1-.2.1-.178Zm11.64-3.178a7.563,7.563,0,0,0-3.354-6.374,7.43,7.43,0,0,1,2.356,5.58c0,3.872-2.636,7.189-6.749,7.189a6.79,6.79,0,0,1-4.553-1.767,7.183,7.183,0,0,0,5.491,2.542c4.114,0,6.809-3.2,6.809-7.169m-11.341-5.5h1.6l.06.1-.18.1h-1.478l-.678.08-.1-.179.1-.179Zm.12,9.214h1.557l.16.1-.06.1h-1.657l-.679.08-.1-.178.1-.179Zm-.7-4.547c0-2.542,1.5-4.766,4.174-4.766s4.153,2.263,4.153,4.8-1.478,4.766-4.153,4.766-4.174-2.264-4.174-4.8m8.027.039c0-2.382-1.377-4.507-3.853-4.507s-3.875,2.085-3.875,4.469,1.4,4.507,3.875,4.507c2.5,0,3.853-2.085,3.853-4.468M104.2,65.517h6.629l.06.1-.06.1H104.2l-.679.08-.1-.179.1-.178Zm.179,10.306h6.47l.06.1-.06.1h-6.47l-.678.08-.1-.179.1-.179Zm1.218-1.211a4.7,4.7,0,0,1-.978-3.078c0-2.145,1.018-4.21,3.614-4.21a3.236,3.236,0,0,1,1.6.4,3.325,3.325,0,0,0-2.6-1.192c-2.4,0-3.615,2.066-3.615,4.211a4.219,4.219,0,0,0,1.977,3.872m-.6-9.631h5.112l.06.1-.06.1H105l-.678.079-.1-.179.1-.178Zm.28,11.378h4.792l.06.1-.06.1h-4.792l-.679.08-.1-.179.1-.179Zm3.415-11.915.06.1-.06.1h-2.3l-.678.08-.1-.179.1-.1ZM106.533,76.9h2.256l.06.1-.06.1h-2.935l-.1-.1.1-.179Zm2.516-1.411-.06-.1.16-.1h2.3l.06.1-.06.1Zm.159-9.214-.18-.1.06-.1h2.375l.06.1-.06.1Zm.719.537-.06-.1.06-.1h1.957l.06.1-.06.1Zm.06,8.141-.06-.1.06-.1h1.878l.06.1-.06.1Zm.5-.536-.06-.1.06-.1H112.2l.06.1-.06.1Zm.02-7.069-.06-.1.06-.1h1.718l.06.1-.06.1Zm.38,6.513-.06-.1.06-.1h1.6l.06.1-.06.1Zm.04-5.957-.06-.1.06-.1h1.557l.06.1-.06.1Zm.259.536-.06-.1.06-.1H112.7l.06.1-.06.1Zm.02,4.885-.06-.1.06-.1h1.5l.06.1-.06.1Zm.18-.536-.06-.1.06-.1h1.478l.06.1-.06.1Zm.02-3.813-.06-.1.06-.1h1.438l.06.1-.06.1Zm.18.556-.06-.1.06-.1h1.4l.06.1-.06.1Zm0,2.7-.06-.1.06-.1h1.4l.06.1-.06.1Zm.1-2.164-.06-.1.06-.1h1.4l.06.1-.06.1Zm0,1.628-.06-.1.06-.1h1.358l.06.1-.06.1Zm.041-1.092-.06-.1.06-.1H113.1l.06.1-.06.1Zm0,.556-.06-.1.06-.1H113.1l.06.1-.06.1Z" transform="translate(-14.949 -10.304)"/><path class="b" d="M130.474,77.5V68.489l-3.016,5.262h-2.116l-3.075-5.4V77.5h-2.476V64.12h3.094l3.5,6.335,3.454-6.335h3.115V77.5Zm-7.948-8.221,1,1.768v7.507h-2.736l-1-.794h2.735Zm10.125,7.923V64.418h-2.636l-3.634,6.593-3.675-6.593H120.09V77.207h1.877V67.1l3.534,6.354h1.8l3.474-6.295V77.207ZM122.606,64.756l.06.1-.06.1h-1.5l-.659.08-.1-.178.1-.1Zm-1.5.536h1.8l.06.1-.06.1h-1.8l-.659.08-.1-.179.1-.179Zm0,.536h2.1l.06.1-.06.1h-2.1l-.659.08-.1-.179.1-.179Zm0,.557h.539l.06.1-.06.1h-.539l-.659.08-.1-.179.1-.178Zm0,.536h.539l.06.1-.06.1h-.539l-.659.079-.1-.178.1-.179Zm0,.536h.539l.06.1-.06.1h-.539l-.659.08-.1-.179.1-.179Zm0,.557h.539l.06.1-.06.1h-.539l-.659.079-.1-.179.1-.178Zm0,.536h.539l.06.1-.06.1h-.539l-.659.1-.1-.2.1-.179Zm0,.536h.539l.06.1-.06.1h-.539l-.659.08-.1-.179.1-.179Zm0,.557h.539l.06.1-.06.1h-.539l-.659.079-.1-.179.1-.158Zm0,.536h.539l.06.1-.06.1h-.539l-.659.079-.1-.178.1-.179Zm0,.536h.539l.06.1-.06.1h-.539l-.659.08-.1-.178.1-.179Zm0,.557h.539l.06.1-.06.1h-.539l-.659.079-.1-.179.1-.179Zm0,.536h.539l.06.1-.06.1h-.539l-.659.08-.1-.179.1-.179Zm0,.536h.539l.06.1-.06.1h-.539l-.659.08-.1-.179.1-.178Zm0,.556h.539l.06.1-.06.1h-.539l-.659.08-.1-.18.1-.179Zm0,.537h.539l.06.1-.06.1h-.539l-.659.079-.1-.179.1-.179Zm0,.536h.539l.06.1-.06.1h-.539l-.659.08-.1-.179.1-.178Zm0,.556h.539l.06.1-.06.1h-.539l-.659.08-.1-.178.1-.179Zm0,.537h.539l.06.1-.06.1h-.539l-.659.1-.1-.2.1-.179Zm0,.536h.539l.06.1-.06.1h-.539l-.659.08-.1-.179.1-.179Zm0,.537h.539l.06.1-.06.1h-.539l-.659.08-.1-.179.1-.178Zm0,.536h.539l.06.1-.06.1h-1.2l-.1-.1.1-.179Zm.839-10.088-.06-.1.06-.1H123.5l.06.1-.06.1Zm.379.537-.06-.1.06-.1H123.8l.06.1-.06.1Zm.24.536-.06-.1.06-.1H124.1l.06.1-.06.1Zm.3.557-.06-.1.06-.1h1.557l.06.1-.06.1Zm.279.536-.06-.1.06-.1h1.577l.06.1-.06.1Zm.04-4.628,1.438.815,2.256,4.051-.5.914Zm.28,5.163-.06-.1.06-.1h1.557l.06.1-.06.1Zm.3.557-.06-.1.06-.1h1.558l.06.1-.06.1Zm.3.536-.06-.1.06-.1h1.557l.06.1-.06.1Zm.3.536-.06-.1.06-.1h1.557l.06.1-.06.1Zm.32.557-.06-.1.06-.1h1.557l.06.1-.06.1Zm.3.536-.06-.1.06-.1h2.835l.06.1-.06.1Zm.3.536-.06-.1.06-.1h2.236l.06.1-.06.1Zm4.931-3.078v1.827L128.177,74.8H126.46l-.978-.794h2.137ZM125.581,73.1l-.06-.1.06-.1h1.637l.06.1-.06.1Zm.958-1.628-.06-.1.06-.1h1.578l.06.1-.06.1Zm.28-.557-.06-.1.06-.1h1.6l.06.1-.06.1Zm.3-.536-.06-.1.06-.1h1.6l.06.1-.06.1Zm.3-.536-.06-.1.06-.1h1.6l.06.1-.06.1Zm.3-.557-.06-.1.06-.1h1.6l.06.1-.06.1Zm.3-.536-.06-.1.06-.1h1.6l.06.1-.06.1Zm.3-.536-.06-.1.06-.1h1.6l.06.1-.06.1Zm.32-.557-.06-.1.06-.1h1.6l.06.1-.06.1Zm.279-.536-.06-.1.06-.1h1.6l.06.1-.06.1Zm.3-.537-.06-.1.06-.1h1.577l.06.1-.06.1Zm.3-.556-.06-.1.06-.1h2.776l.06.1-.06.1Zm.32-.536-.06-.1.06-.1h2.457l.06.1-.06.1Zm.28-.537-.06-.1.06-.1h2.177l.06.1-.06.1Zm1.358,13.6-1-.794h2.736V64.12l1,.8V78.558Zm-.359-11.975-.06-.1.06-.1h1.2l.06.1-.06.1Zm0,.537-.06-.1.06-.1h1.2l.06.1-.06.1Zm0,.536-.06-.1.06-.1h1.2l.06.1-.06.1Zm0,.557-.06-.1.06-.1h1.2l.06.1-.06.1Zm0,.536-.06-.1.06-.1h1.2l.06.1-.06.1Zm0,.536-.06-.1.06-.1h1.2l.06.1-.06.1Zm0,.557-.06-.1.06-.1h1.2l.06.1-.06.1Zm0,.536-.06-.1.06-.1h1.2l.06.1-.06.1Zm0,.536-.06-.1.06-.1h1.2l.06.1-.06.1Zm0,.557-.06-.1.06-.1h1.2l.06.1-.06.1Zm0,.536-.06-.1.06-.1h1.2l.06.1-.06.1Zm0,.536-.06-.1.06-.1h1.2l.06.1-.06.1Zm0,.556-.06-.1.06-.1h1.2l.06.1-.06.1Zm0,.537-.06-.1.06-.1h1.2l.06.1-.06.1Zm0,.536-.06-.1.06-.1h1.2l.06.1-.06.1Zm0,.556-.06-.1.06-.1h1.2l.06.1-.06.1Zm0,.537-.06-.1.06-.1h1.2l.06.1-.06.1Zm0,.536-.06-.1.06-.1h1.2l.06.1-.06.1Zm0,.536-.06-.1.06-.1h1.2l.06.1-.06.1Zm0,.537-.06-.1.06-.1h1.2l.06.1-.06.1Z" transform="translate(-17.777 -10.36)"/><path class="b" d="M141.206,78.558l-1-.794h2.735V64.12l1,.8V78.558Zm-1-14.438h2.476V77.5h-2.476Zm2.176.3h-1.877V77.207h1.877Zm-.339.338.06.1-.06.1h-.539l-.658.08-.1-.178.1-.1Zm-.539.536h.539l.06.1-.06.1h-.539l-.658.08-.1-.179.1-.179Zm0,.536h.539l.06.1-.06.1h-.539l-.658.08-.1-.179.1-.179Zm0,.557h.539l.06.1-.06.1h-.539l-.658.08-.1-.179.1-.178Zm0,.536h.539l.06.1-.06.1h-.539l-.658.079-.1-.178.1-.179Zm0,.536h.539l.06.1-.06.1h-.539l-.658.08-.1-.179.1-.179Zm0,.557h.539l.06.1-.06.1h-.539l-.658.079-.1-.179.1-.178Zm0,.536h.539l.06.1-.06.1h-.539l-.658.1-.1-.2.1-.179Zm0,.536h.539l.06.1-.06.1h-.539l-.658.08-.1-.179.1-.179Zm0,.557h.539l.06.1-.06.1h-.539l-.658.079-.1-.179.1-.158Zm0,.536h.539l.06.1-.06.1h-.539l-.658.079-.1-.179.1-.178Zm0,.536h.539l.06.1-.06.1h-.539l-.658.08-.1-.179.1-.178Zm0,.557h.539l.06.1-.06.1h-.539l-.658.079-.1-.179.1-.179Zm0,.536h.539l.06.1-.06.1h-.539l-.658.08-.1-.179.1-.179Zm0,.536h.539l.06.1-.06.1h-.539l-.658.08-.1-.179.1-.178Zm0,.556h.539l.06.1-.06.1h-.539l-.658.08-.1-.18.1-.179Zm0,.537h.539l.06.1-.06.1h-.539l-.658.079-.1-.179.1-.179Zm0,.536h.539l.06.1-.06.1h-.539l-.658.08-.1-.179.1-.178Zm0,.556h.539l.06.1-.06.1h-.539l-.658.08-.1-.178.1-.179Zm0,.537h.539l.06.1-.06.1h-.539l-.658.1-.1-.2.1-.179Zm0,.536h.539l.06.1-.06.1h-.539l-.658.08-.1-.179.1-.179Zm0,.537h.539l.06.1-.06.1h-.539l-.658.08-.1-.179.1-.178Zm0,.536h.539l.06.1-.06.1h-1.2l-.1-.1.1-.179Z" transform="translate(-20.972 -10.36)"/><path class="b" d="M155.8,68.138a3.538,3.538,0,0,0-3.295-1.867c-1.477,0-2.336.5-2.336,1.35,0,2.582,7.507.7,7.507,6.077,0,2.522-2.416,4.011-5.311,4.011a6.472,6.472,0,0,1-5.671-2.522l1.857-1.767a4.221,4.221,0,0,0,3.854,1.826c1.377,0,2.636-.456,2.636-1.509,0-2.621-7.508-.834-7.508-6.037,0-2.005,1.618-3.892,4.932-3.892a5.973,5.973,0,0,1,5.172,2.542Zm1.438-1.807a5.635,5.635,0,0,0-4.772-2.224c-3.1,0-4.632,1.748-4.632,3.594,0,5.024,7.508,3.039,7.508,6.017,0,1.251-1.358,1.826-2.935,1.826a4.474,4.474,0,0,1-3.894-1.688l-1.4,1.371a6.264,6.264,0,0,0,5.252,2.164c2.715,0,5.011-1.37,5.011-3.693,0-5.262-7.507-3.137-7.507-6.077,0-1.033.919-1.647,2.636-1.647a3.742,3.742,0,0,1,3.354,1.707Zm-8.886,8.956h1.517l.16.1-.06.1h-1.618l-.679.08-.1-.178.1-.179Zm.34-.536h.34l.159.1-.06.1h-.439l-.679.1-.1-.2.1-.179Zm.18-7.05h.678l.06.1-.06.1h-.678l-.679.08-.1-.179.1-.179Zm.04-.556h.659l.06.1-.06.1h-.659l-.679.08-.1-.179.1-.178Zm0,1.092h.779l.06.1-.06.1h-.779l-.679.1-.1-.2.1-.179Zm-.739,2.144c2.076,2.125,6.33,1.728,6.57,3.257-1.6-.417-5.452-.993-6.57-3.257m.878-3.773h.779l.06.1-.06.1h-.779l-.678.08-.1-.179.1-.179Zm.021,2.164h1.018l.06.1-.06.1h-1.018l-.679.08-.1-.179.1-.179Zm0,7.049h6.909l.06.1-.06.1h-6.909l-.679.08-.1-.179.1-.179Zm-.62-1.35-.06-.159.06-.159.16.06.06.1-.06.1Zm.879-8.4h1l.06.1-.12.1h-.938l-.678.08-.1-.179.1-.179Zm.06,3.257H151.1l.06.1-.06.1h-1.716l-.679.08-.1-.178.1-.16Zm8.546,4.389a4.577,4.577,0,0,0-.5-2.165,3.6,3.6,0,0,1,1.5,2.959c0,2.005-1.777,4.249-5.571,4.249a7.209,7.209,0,0,1-4.633-1.548,7.971,7.971,0,0,0,3.634.754c2.895,0,5.571-1.449,5.571-4.249m-9.105-.5,1.936.833a3.285,3.285,0,0,0,.838.934,4.071,4.071,0,0,1-2.775-1.768m.938-7.705h6.39l.06.1-.06.1h-6.39l-.678.08-.1-.179.1-.178Zm.06,4.348h3.114l.06.1-.06.1h-3.114l-.679.08-.1-.179.1-.179Zm.08,6.494h5.271l.06.1-.06.1h-5.271l-.679.079-.1-.179.1-.179Zm.559-11.379h4.893l.06.1-.06.1h-4.893l-.678.079-.1-.179.12-.178Zm.14,5.421H154.8l.06.1-.06.1h-4.193l-.678.08-.1-.179.1-.179Zm1.9-3.872a3.2,3.2,0,0,1,2.376.933,4.644,4.644,0,0,0-1.118-.139c-1.478,0-2.337.5-2.337,1.33-.619-.2-1-.5-1-.992,0-.636.858-1.132,2.076-1.132M151.384,76.9H153.9l.06.1-.06.1h-3.194l-.1-.1.1-.179ZM154.1,64.445l.06.1-.06.1h-2.616l-.679.079-.1-.179.1-.1Zm-2.057,6.513h3.734l.06.1-.06.1h-3.734l-.679.08-.1-.178.1-.179Zm2,.536H156.4l.06.1-.06.1H154.04l-.678.08-.1-.178.1-.179Zm.74-5.222-.16-.1.06-.1h2.077l.06.1-.06.1Zm.678,9.016h1.078l.06.1-.06.1h-1.078l-.678.08-.1-.178.2-.179Zm.08-3.257h1.2l.06.1-.06.1h-1.2l-.579.08-.2-.179.1-.179Zm.5,2.721h.8l.06.1-.06.1h-.8l-.678.1-.1-.2.1-.179Zm.06-2.165h.84l.06.1-.06.1h-.84l-.678.08-.1-.179.1-.178Zm-.558-5.778-.08-.1.06-.1h.919l.06.1-.06.1Zm.779,6.315h.719l.06.1-.06.1h-.719l-.679.08-.1-.178.1-.179Zm.02,1.092h.639l.06.1-.06.1h-.639l-.678.08-.1-.179.1-.178Zm.06-.556h.659l.06.1-.06.1H156.4l-.719.08-.1-.179.1-.179Zm-.539-6.414-.06-.1.06-.1h.161l.06.1-.06.1Zm.539-2.582a11.32,11.32,0,0,1,2.776,2.145l-2.436,2.164-.858-.516,2.216-2.046a10.256,10.256,0,0,0-1.7-1.748" transform="translate(-21.802 -10.304)"/><path class="b" d="M163.542,77.5V64.12h8.966v2.562h-6.49v2.3h5.891v2.581h-5.891v3.4h6.889V77.5Zm1,1.053-1-.794h9.624v-2.8l1,.794v2.8Zm8.068-1.351V75.261h-6.89V71.27h5.892V69.283h-5.892v-2.9h6.49V64.418h-8.366V77.207Zm-.74-12.451.06.1-.06.1H164.84l-.659.08-.1-.178.1-.1Zm-7.028.536h7.028l.06.1-.06.1H164.84l-.659.08-.1-.179.1-.179Zm0,.536h7.028l.06.1-.06.1H164.84l-.659.08-.1-.179.1-.179Zm0,.557h.539l.06.1-.06.1h-.539l-.659.08-.1-.179.1-.178Zm0,.536h.539l.06.1-.06.1h-.539l-.659.079-.1-.178.1-.179Zm0,.536h.539l.06.1-.06.1h-.539l-.659.08-.1-.179.1-.179Zm0,.557h.539l.06.1-.06.1h-.539l-.659.079-.1-.179.1-.178Zm0,.536h.539l.06.1-.06.1h-.539l-.659.1-.1-.2.1-.179Zm0,.536h.539l.06.1-.06.1h-.539l-.659.08-.1-.179.1-.179Zm0,.557h6.429l.061.1-.061.1H164.84l-.659.079-.1-.179.1-.158Zm0,.536h6.429l.061.1-.061.1H164.84l-.659.079-.1-.179.1-.178Zm0,.536h6.429l.061.1-.061.1H164.84l-.659.08-.1-.179.1-.178Zm0,.557h.539l.06.1-.06.1h-.539l-.659.079-.1-.179.1-.179Zm0,.536h.539l.06.1-.06.1h-.539l-.659.08-.1-.179.1-.179Zm0,.536h.539l.06.1-.06.1h-.539l-.659.08-.1-.179.1-.178Zm0,.556h.539l.06.1-.06.1h-.539l-.659.08-.1-.18.1-.179Zm0,.537h.539l.06.1-.06.1h-.539l-.659.079-.1-.179.1-.179Zm0,.536h.539l.06.1-.06.1h-.539l-.659.08-.1-.179.1-.178Zm0,.556h.539l.06.1-.06.1h-.539l-.659.08-.1-.178.1-.179Zm0,.537h.539l.06.1-.06.1h-.539l-.659.1-.1-.2.1-.179Zm0,.536h7.449l.059.1-.059.1H164.84l-.659.08-.1-.179.1-.179Zm0,.537h7.449l.059.1-.059.1H164.84l-.659.08-.1-.179.1-.178Zm0,.536h7.449l.059.1-.059.1h-8.108l-.1-.1.1-.179Zm7.927-9.73V64.12l1,.794v2.82h-6.489v.993h-1V66.94Zm-.6,4.885V68.986l1,.794V72.62h-5.891V74.7h-1V71.825Z" transform="translate(-24.34 -10.36)"/><rect class="c" width="175.812" height="80.999" transform="translate(0 0)"/></g><text class="d" transform="translate(157.881 10.522)"><tspan class="e" x="0" y="0">T</tspan><tspan y="0">M </tspan></text></g></svg>